<svg width="286" height="233" viewBox="0 0 286 233" fill="none" xmlns="http://www.w3.org/2000/svg">
<path d="M285.162 129.749C283.484 117.926 279.394 106.714 273.002 96.4273C267.429 87.45 260.276 79.4658 251.739 72.6797L251.762 72.6584L162.104 3.70547C162.039 3.64848 161.972 3.5948 161.902 3.54463C158.921 1.25813 154.885 0 150.542 0C146.193 0 141.999 1.26094 138.739 3.55191C135.234 6.00373 133.23 9.25694 133.09 12.7198C132.962 15.9505 134.501 19.0592 137.436 21.4824C143.206 26.0414 148.963 30.6996 154.729 35.3633C160.324 39.8915 166.089 44.5547 171.826 49.0946L62.009 49.0201C49.4502 49.0201 40.8988 54.9252 39.1397 64.8115C38.3668 69.1418 39.7307 73.9031 42.7799 77.5497C46.0149 81.4155 50.7118 83.5479 56.0047 83.5479L64.3765 83.5535C75.9418 83.5535 87.5581 83.5249 99.1587 83.4969L110.221 83.4711L10.5527 157.305L10.157 157.594C4.5898 161.867 0.94513 167.857 0.158772 174.028C-0.437292 178.703 0.651855 182.975 3.3098 186.387C6.47762 190.454 11.4236 192.692 17.2376 192.692C22.9491 192.692 28.7771 190.524 33.6554 186.579L87.478 142.474C87.248 144.628 86.9687 147.787 87.0006 150.08C87.0611 153.711 88.2252 160.997 90.0682 166.911C93.8763 179.067 100.291 190.188 109.133 199.955C118.333 210.117 129.538 218.174 142.434 223.897C156.068 229.935 170.724 233 185.998 233H186.139C201.461 232.963 216.164 229.849 229.842 223.743C242.76 217.951 253.96 209.862 263.125 199.702C271.956 189.885 278.361 178.745 282.162 166.6C284.042 160.588 285.247 154.384 285.753 148.104C286.223 142.035 286.021 135.859 285.162 129.749V129.749ZM187.114 188.009C153.454 188.009 126.158 163.56 126.158 133.398C126.158 103.24 153.455 78.791 187.114 78.791C220.775 78.791 248.068 103.24 248.068 133.398C248.069 163.56 220.775 188.009 187.114 188.009ZM222.266 128.6C222.763 137.602 219.172 145.96 212.866 152.148C206.451 158.451 197.298 162.411 187.063 162.411C176.832 162.411 167.677 158.451 161.26 152.148C154.957 145.96 151.373 137.603 151.867 128.607C152.351 119.863 156.61 112.144 163.027 106.679C169.336 101.305 177.808 98.0267 187.062 98.0267C196.318 98.0267 204.787 101.306 211.097 106.679C217.517 112.144 221.778 119.857 222.266 128.6V128.6Z" fill="#F1F1F1"/>
</svg>
