<svg width="254" height="237" viewBox="0 0 254 237" fill="none" xmlns="http://www.w3.org/2000/svg">
<path d="M0 0V237H254V0H0ZM138.226 184.839C138.226 207.904 123.712 218.431 102.564 218.431C83.4571 218.431 72.4013 209.227 66.7317 198.064L86.1786 187.114C89.9205 193.303 93.3223 198.54 101.543 198.54C109.367 198.54 114.357 195.684 114.357 184.521V108.819H138.226V184.839V184.839ZM194.696 218.431C172.527 218.431 158.183 208.592 151.209 195.684L170.656 185.209C175.759 192.986 182.449 198.752 194.185 198.752C204.05 198.752 210.4 194.15 210.4 187.748C210.4 180.131 203.937 177.433 192.995 172.936L187.042 170.555C169.806 163.731 158.41 155.108 158.41 136.963C158.41 120.246 172.074 107.549 193.335 107.549C208.529 107.549 219.415 112.469 227.239 125.377L208.643 136.487C204.561 129.662 200.138 126.964 193.278 126.964C186.304 126.964 181.882 131.091 181.882 136.487C181.882 143.152 186.304 145.85 196.567 150.029L202.52 152.41C222.817 160.504 234.213 168.81 234.213 187.431C234.213 207.428 217.317 218.431 194.696 218.431V218.431Z" fill="#F1F1F1"/>
</svg>
