<svg width="334" height="250" viewBox="0 0 334 250" fill="none" xmlns="http://www.w3.org/2000/svg">
<path d="M327.672 82.5521C330.216 80.5339 334 82.4219 334 85.612V218.75C334 236.003 319.975 250 302.688 250H31.3125C14.0254 250 0 236.003 0 218.75V85.6771C0 82.4219 3.71836 80.599 6.32773 82.6172C20.9402 93.9453 40.3148 108.333 106.854 156.576C120.618 166.602 143.842 187.695 167 187.565C190.289 187.76 213.969 166.211 227.211 156.576C293.75 108.333 313.06 93.8802 327.672 82.5521ZM167 166.667C182.134 166.927 203.923 147.656 214.882 139.714C301.448 77.0182 308.037 71.5495 327.998 55.9245C331.782 52.9948 334 48.4375 334 43.6198V31.25C334 13.9974 319.975 0 302.688 0H31.3125C14.0254 0 0 13.9974 0 31.25V43.6198C0 48.4375 2.21797 52.9297 6.00156 55.9245C25.9633 71.4844 32.552 77.0182 119.118 139.714C130.077 147.656 151.866 166.927 167 166.667Z" fill="black"/>
</svg>
