<svg width="48" height="42" viewBox="0 0 48 42" fill="none" xmlns="http://www.w3.org/2000/svg">
<path d="M1.71477 7.71434H46.2862C47.233 7.71434 48.0005 6.94687 48.0005 6.00005V1.71434C48.0005 0.767524 47.233 6.10352e-05 46.2862 6.10352e-05H1.71477C0.767953 6.10352e-05 0.000488281 0.767524 0.000488281 1.71434V6.00005C0.000488281 6.94687 0.767953 7.71434 1.71477 7.71434ZM1.71477 24.8572H46.2862C47.233 24.8572 48.0005 24.0897 48.0005 23.1429V18.8572C48.0005 17.9104 47.233 17.1429 46.2862 17.1429H1.71477C0.767953 17.1429 0.000488281 17.9104 0.000488281 18.8572V23.1429C0.000488281 24.0897 0.767953 24.8572 1.71477 24.8572ZM1.71477 42H46.2862C47.233 42 48.0005 41.2325 48.0005 40.2857V36C48.0005 35.0532 47.233 34.2857 46.2862 34.2857H1.71477C0.767953 34.2857 0.000488281 35.0532 0.000488281 36V40.2857C0.000488281 41.2325 0.767953 42 1.71477 42Z" fill="#252525"/>
</svg>