<svg width="250" height="402" viewBox="0 0 250 402" fill="none" xmlns="http://www.w3.org/2000/svg">
<path d="M212.5 0H37.5C16.7969 0 0 16.8809 0 37.6875V364.312C0 385.119 16.7969 402 37.5 402H212.5C233.203 402 250 385.119 250 364.312V37.6875C250 16.8809 233.203 0 212.5 0ZM125 376.875C111.172 376.875 100 365.647 100 351.75C100 337.853 111.172 326.625 125 326.625C138.828 326.625 150 337.853 150 351.75C150 365.647 138.828 376.875 125 376.875ZM212.5 292.078C212.5 297.26 208.281 301.5 203.125 301.5H46.875C41.7188 301.5 37.5 297.26 37.5 292.078V47.1094C37.5 41.9273 41.7188 37.6875 46.875 37.6875H203.125C208.281 37.6875 212.5 41.9273 212.5 47.1094V292.078Z" fill="black"/>
</svg>
