<svg width="286" height="152" viewBox="0 0 286 152" fill="none" xmlns="http://www.w3.org/2000/svg">
<path d="M143 7.58645C219.594 7.58645 278.493 40.1901 278.493 76C278.493 111.81 219.55 144.414 143 144.414C66.4056 144.414 7.5075 111.81 7.5075 76C7.5075 40.1901 66.4503 7.58645 143 7.58645ZM143 0C64.0372 0 0 34.0036 0 76C0 117.996 64.0372 152 143 152C221.963 152 286 117.996 286 76C286 34.0036 221.963 0 143 0ZM97.5081 69.9037C93.9778 88.1925 81.51 86.2959 66.1822 86.2959L72.3044 54.4147C89.2856 54.4147 100.815 52.5633 97.5081 69.9037ZM43.5256 118.583H59.9259L63.8138 98.3529C82.1803 98.3529 93.5756 99.7077 104.122 89.7279C115.785 78.8901 118.824 59.6078 110.512 49.9442C106.178 44.8865 99.2063 42.4029 89.7325 42.4029H58.1384L43.5256 118.583ZM126.51 22.1272H142.821L138.933 42.3577C153.01 42.3577 166.059 41.3191 172.36 47.1895C178.973 53.331 175.801 61.1884 168.651 98.2626H152.116C158.998 62.4076 160.294 59.4272 157.792 56.7178C155.378 54.0986 149.882 54.6405 136.61 54.6405L128.208 98.2626H111.897L126.51 22.1272V22.1272ZM225.672 69.9037C222.097 88.4635 209.272 86.2959 194.346 86.2959L200.468 54.4147C217.539 54.4147 228.979 52.5633 225.672 69.9037V69.9037ZM171.689 118.583H188.134L192.022 98.3529C211.327 98.3529 222.008 99.4819 232.33 89.7279C243.994 78.8901 247.033 59.6078 238.721 49.9442C234.386 44.8865 227.415 42.4029 217.941 42.4029H186.347L171.689 118.583V118.583Z" fill="#F1F1F1"/>
</svg>
