<svg width="889" height="623" viewBox="0 0 889 623" fill="none" xmlns="http://www.w3.org/2000/svg">
<path d="M419.275 470.996C418.858 471.775 418.441 472.398 419.275 470.996V470.996ZM765.336 358.086C737.398 358.078 709.832 364.073 684.769 375.607C676.574 360.163 668.1 346.666 666.711 336.543C665.044 324.733 663.238 317.725 665.183 303.708C667.128 289.692 675.879 269.835 675.74 268.408C675.601 266.98 673.795 259.842 655.876 259.712C637.957 259.583 622.538 262.957 620.746 267.37C617.582 275.433 615.12 283.723 613.384 292.158C610.189 307.342 577.56 361.591 559.085 389.883C552.973 378.851 547.834 369.118 546.722 361.331C545.056 349.521 543.25 342.513 545.194 328.496C547.139 314.48 555.89 294.624 555.751 293.196C555.613 291.768 553.807 284.63 535.902 284.501C517.996 284.371 502.564 287.745 500.758 292.158C498.952 296.57 497.007 306.953 493.396 316.946C489.784 326.939 446.32 417.267 434.943 440.757C429.109 452.697 424.109 462.301 420.497 468.79C419.941 469.828 419.525 470.477 419.247 470.996C419.663 470.347 419.941 469.698 419.941 469.958C416.885 475.538 415.08 478.653 415.08 478.653V478.783C412.718 482.936 410.079 486.7 408.829 486.7C407.995 486.7 406.189 475.798 409.245 460.873C415.774 429.466 431.193 380.668 431.054 378.981C430.915 378.073 433.971 369.637 420.914 365.095C408.273 360.812 403.689 367.95 402.578 367.95C401.467 367.95 400.633 370.545 400.633 370.545C400.633 370.545 414.663 315.518 373.699 315.518C348.14 315.518 312.579 341.734 295.105 365.484C284.131 371.065 260.378 383.134 235.374 395.983C225.79 400.914 215.927 405.976 206.62 410.778C205.926 410.129 205.37 409.48 204.676 408.831C154.961 359.254 63.1703 324.214 67.0598 257.636C68.4488 233.367 77.4779 169.644 243.57 92.2948C379.7 28.9616 488.534 46.3523 507.273 85.0271C534.221 140.184 449.084 242.841 307.718 257.636C253.835 263.217 225.512 243.749 218.428 236.482C211.066 228.825 209.954 228.435 207.176 229.863C202.592 232.199 205.509 238.947 207.176 242.971C211.343 253.223 228.707 271.393 258.28 280.477C284.256 288.394 347.431 292.807 423.817 265.163C509.634 234.275 576.435 148.23 556.849 76.202C536.902 3.00542 406.995 -21.0041 284.159 19.7472C210.968 44.0162 131.819 82.1719 74.8803 131.878C7.24604 191.058 -3.57488 242.581 0.87017 264.125C16.6918 340.566 129.457 390.402 174.588 427.26C172.366 428.428 170.282 429.466 168.337 430.504C145.709 441.017 59.7393 483.066 38.2225 527.451C13.9136 577.806 42.2508 613.885 60.8506 618.817C118.9 633.871 178.339 606.747 210.274 562.232C242.209 517.717 238.333 459.575 223.609 433.1C223.47 432.711 223.192 432.451 223.053 432.062C228.887 428.817 234.86 425.573 240.833 422.328C252.349 415.969 263.6 410.129 273.463 405.067C267.907 419.084 263.878 435.955 261.795 460.354C259.294 488.906 271.935 525.893 288.326 540.429C295.549 546.788 304.287 546.918 309.704 546.918C328.873 546.918 337.486 532.123 347.056 514.473C358.864 492.929 369.282 467.881 369.282 467.881C369.282 467.881 356.224 535.627 391.924 535.627C404.967 535.627 418.024 519.924 423.872 511.877V512.007C423.872 512.007 424.15 511.488 424.845 510.449C426.234 508.503 426.928 507.335 426.928 507.335V506.945C432.207 498.51 443.736 479.172 461.086 447.246C483.589 405.976 505.106 354.453 505.106 354.453C507.185 365.779 510.062 376.964 513.718 387.936C517.607 400.265 525.803 413.763 532.332 426.87C527.053 433.619 523.858 437.513 523.858 437.513C523.868 437.612 523.918 437.705 523.997 437.772C519.83 442.963 515.107 448.544 510.245 453.995C492.479 473.721 471.351 496.303 468.573 502.792C465.239 510.45 466.073 516.16 472.462 520.572C477.185 523.947 485.52 524.466 494.257 523.817C510.231 522.779 521.483 519.145 526.9 516.809C536.888 513.463 546.327 508.833 554.946 503.052C572.309 491.112 582.866 473.981 581.894 451.399C581.338 438.94 577.032 426.481 571.754 414.801C573.282 412.724 574.949 410.518 576.477 408.312C603.966 370.805 625.219 329.638 625.219 329.638C627.299 340.965 630.176 352.15 633.832 363.122C637.165 373.634 643.68 385.185 649.653 396.476C623.83 416.073 607.856 438.784 602.3 453.709C592.02 481.353 600.077 493.812 615.218 496.667C622.024 497.965 631.748 494.98 638.971 492.124C649.699 488.786 659.813 483.927 668.961 477.719C686.325 465.779 703.119 449.037 702.008 426.325C701.591 416.073 698.535 405.82 694.507 395.957C716.315 387.391 744.638 382.719 780.755 386.612C858.098 395.048 873.239 440.212 870.322 459.03C867.405 477.848 851.153 488.361 845.736 491.476C840.318 494.59 838.651 495.758 839.068 498.094C839.763 501.469 842.263 501.339 846.847 500.56C853.237 499.522 887.394 485.246 888.922 450.335C891.145 406.209 845.736 357.671 765.294 358.061L765.336 358.086ZM169.171 545.88C143.626 571.966 107.788 581.829 92.3827 573.523C75.8526 564.542 82.3813 526.153 113.899 498.354C133.069 481.482 157.78 465.909 174.172 456.305C177.922 454.228 183.34 451.114 190.007 447.35C191.118 446.701 191.674 446.441 191.674 446.441C192.924 445.663 194.313 445.014 195.702 444.235C207.218 483.689 196.119 518.47 169.171 545.854V545.88ZM355.808 427.26C346.917 447.635 328.179 499.548 316.788 496.822C307.065 494.486 301.092 454.903 314.844 415.969C321.789 396.372 336.513 373.011 345.264 363.927C359.28 349.261 374.699 344.589 378.311 350.429C383.172 358.086 361.364 414.541 355.808 427.26ZM509.995 496.044C506.245 497.861 502.772 499.029 501.105 498.12C499.855 497.471 502.633 495.006 502.633 495.006C502.633 495.006 521.941 475.668 529.581 466.843C534.026 461.652 539.166 455.552 544.708 448.803C544.708 449.452 544.847 450.101 544.847 450.88C544.667 474.111 520.788 489.814 509.954 496.044H509.995ZM628.873 470.736C626.094 468.92 626.511 462.82 635.818 443.872C639.43 436.474 647.75 424.015 662.211 412.075C663.847 416.595 664.737 421.322 664.85 426.092C664.711 455.293 642.347 466.194 628.886 470.736H628.873Z" fill="#F1F1F1"/>
</svg>
