<svg width="286" height="286" viewBox="0 0 286 286" fill="none" xmlns="http://www.w3.org/2000/svg">
<path d="M30.9641 93.0653L89.4903 253.364C48.5508 233.528 20.3544 191.551 20.3544 143C20.3544 125.183 24.1601 108.346 30.9641 93.0653V93.0653ZM225.802 136.83C225.802 121.665 220.381 111.171 215.711 102.983C209.483 92.8923 203.66 84.3008 203.66 74.2101C203.66 62.9085 212.194 52.4141 224.245 52.4141C224.764 52.4141 225.283 52.4718 225.859 52.5294C204.006 32.521 174.944 20.2968 143 20.2968C100.158 20.2968 62.4472 42.2657 40.4782 75.594C43.3613 75.7093 46.0714 75.7669 48.3778 75.7669C61.1786 75.7669 81.0718 74.2101 81.0718 74.2101C87.7028 73.8064 88.4524 83.5512 81.879 84.3008C81.879 84.3008 75.248 85.0504 67.8673 85.454L112.555 218.306L139.425 137.81L120.339 85.454C113.708 85.0504 107.481 84.3008 107.481 84.3008C100.85 83.8972 101.657 73.8064 108.23 74.2101C108.23 74.2101 128.469 75.7669 140.521 75.7669C153.321 75.7669 173.215 74.2101 173.215 74.2101C179.846 73.8064 180.595 83.5512 174.022 84.3008C174.022 84.3008 167.391 85.0504 160.01 85.454L204.352 217.325L216.576 176.444C221.765 159.491 225.802 147.325 225.802 136.83ZM145.133 153.725L108.346 260.687C119.359 263.916 130.949 265.703 143 265.703C157.3 265.703 170.966 263.224 183.709 258.726C183.363 258.207 183.075 257.631 182.844 257.054L145.133 153.725ZM250.654 84.1278C251.173 88.0488 251.461 92.2004 251.461 96.7556C251.461 109.21 249.154 123.165 242.12 140.694L204.64 249.039C241.14 227.762 265.646 188.264 265.646 143C265.646 121.665 260.225 101.599 250.654 84.1278V84.1278ZM286 143C286 221.881 221.823 286 143 286C64.1194 286 0 221.823 0 143C0 64.1194 64.1194 0 143 0C221.823 0 286 64.1194 286 143ZM279.427 143C279.427 67.752 218.19 6.57339 143 6.57339C67.752 6.57339 6.57339 67.752 6.57339 143C6.57339 218.248 67.8097 279.427 143 279.427C218.248 279.427 279.427 218.248 279.427 143Z" fill="#F1F1F1"/>
</svg>
